# xmcd CD database file
#
# Track frame offsets:
#	150
#	15597
#	31700
#	48090
#	63789
#	77195
#	92587
#	107508
#	124548
#	143862
#	163748
#	181201
#	200909
#	217305
#	233534
#	248452
#	263989
#	285771
#	299794
#	319466
#	338697
#
# Disc length: 4714 seconds
#
# Revision: 1
# Processed by: cddbd v1.5.1PL2 Copyright (c) Steve Scherf et al.
# Submitted via: jetAudio 5
#
DISCID=27126815
DTITLE=Chiquito and Bordoneio - Fungando Poeira and Da Estância Prá Venda
DYEAR=1900
DGENRE=
TTITLE0=Fungando Poeira
TTITLE1=De Cantos
TTITLE2=Segredos da Minha Gaita
TTITLE3=Procedência
TTITLE4=Vanerando
TTITLE5=Expresso da Rancheira
TTITLE6=Ronda das Casas
TTITLE7=Gringa Flor
TTITLE8=Fandango
TTITLE9=Canto da Terra
TTITLE10=Da Estância Prá Venda
TTITLE11=Meu Rio Grande do Sul
TTITLE12=Vanerão do Peão
TTITLE13=Invernías
TTITLE14=Chamamé Prá Ti
TTITLE15=O Rancho da Negra Minga
TTITLE16=Teia de Luz
TTITLE17=Nascidos Prá Lida
TTITLE18=Relíquia do Meu Avô
TTITLE19=Rodeio de Taura
TTITLE20=Surungo, China e Canha
EXTD=Música Nativista do Rio Grande do Sul
EXTT0=Música Nativista do Rio Grande do Sul
EXTT1=Música Nativista do Rio Grande do Sul
EXTT2=Música Nativista do Rio Grande do Sul
EXTT3=Música Nativista do Rio Grande do Sul
EXTT4=Música Nativista do Rio Grande do Sul
EXTT5=Música Nativista do Rio Grande do Sul
EXTT6=Música Nativista do Rio Grande do Sul
EXTT7=Música Nativista do Rio Grande do Sul
EXTT8=Música Nativista do Rio Grande do Sul
EXTT9=Música Nativista do Rio Grande do Sul
EXTT10=Música Nativista do Rio Grande do Sul
EXTT11=Música Nativista do Rio Grande do Sul
EXTT12=Música Nativista do Rio Grande do Sul
EXTT13=Música Nativista do Rio Grande do Sul
EXTT14=Música Nativista do Rio Grande do Sul
EXTT15=Música Nativista do Rio Grande do Sul
EXTT16=Música Nativista do Rio Grande do Sul
EXTT17=Música Nativista do Rio Grande do Sul
EXTT18=Música Nativista do Rio Grande do Sul
EXTT19=Música Nativista do Rio Grande do Sul
EXTT20=Música Nativista do Rio Grande do Sul
PLAYORDER=
